<svg width="256"
  height="256"
  viewBox="0 0 256 256"
  fill="none"
  xmlns="http://www.w3.org/2000/svg">
  <g clip-path="url(#clip0_503_2)">
    <rect width="256"
      height="256"
      rx="128"
      fill="black" />
    <path fill-rule="evenodd"
      clip-rule="evenodd"
      d="M256 0H0V256H256V0ZM114.823 75H92.1252V150.731C92.1252 154.195 91.6126 157.112 90.5873 159.481C89.562 161.85 88.0594 163.653 86.0795 164.89C84.135 166.092 81.7485 166.693 78.9201 166.693C76.2331 166.693 73.8997 166.163 71.9198 165.102C69.9753 164.006 68.4373 162.451 67.306 160.435C66.21 158.385 65.6266 155.928 65.5559 153.064H42.6989C42.6635 160.276 44.2014 166.269 47.3127 171.042C50.4239 175.78 54.6312 179.315 59.9344 181.649C65.2731 183.947 71.2127 185.096 77.7534 185.096C85.1072 185.096 91.5595 183.699 97.1103 180.906C102.661 178.113 106.992 174.136 110.103 168.974C113.25 163.812 114.823 157.731 114.823 150.731V75ZM133.809 75V183.611H156.772V138.745H200.948V119.813H156.772V93.9326H205.721V75H133.809Z"
      fill="url(#paint0_linear_503_2)" />
  </g>
  <defs>
    <linearGradient id="paint0_linear_503_2"
      x1="36"
      y1="37"
      x2="206"
      y2="227"
      gradientUnits="userSpaceOnUse">
      <stop stop-color="#4ABDC5" />
      <stop offset="1"
        stop-color="#F05C77" />
    </linearGradient>
    <clipPath id="clip0_503_2">
      <rect width="256"
        height="256"
        rx="128"
        fill="white" />
    </clipPath>
  </defs>
</svg>
